<?xml version="1.0" encoding="UTF-8" standalone="no"?>
<!-- Created with Inkscape (http://www.inkscape.org/) -->

<svg
   xmlns:osb="http://www.openswatchbook.org/uri/2009/osb"
   xmlns:dc="http://purl.org/dc/elements/1.1/"
   xmlns:cc="http://creativecommons.org/ns#"
   xmlns:rdf="http://www.w3.org/1999/02/22-rdf-syntax-ns#"
   xmlns:svg="http://www.w3.org/2000/svg"
   xmlns="http://www.w3.org/2000/svg"
   xmlns:xlink="http://www.w3.org/1999/xlink"
   xmlns:sodipodi="http://sodipodi.sourceforge.net/DTD/sodipodi-0.dtd"
   xmlns:inkscape="http://www.inkscape.org/namespaces/inkscape"
   width="64px"
   height="64px"
   id="svg2985"
   version="1.1"
   inkscape:version="0.48.2 r9819"
   sodipodi:docname="New document 2">
  <defs
     id="defs2987">
    <linearGradient
       inkscape:collect="always"
       id="linearGradient3994">
      <stop
         style="stop-color:#011403;stop-opacity:1;"
         offset="0"
         id="stop3996" />
      <stop
         style="stop-color:#011403;stop-opacity:0;"
         offset="1"
         id="stop3998" />
    </linearGradient>
    <linearGradient
       id="linearGradient3881">
      <stop
         style="stop-color:#d5ff04;stop-opacity:1;"
         offset="0"
         id="stop3883" />
      <stop
         style="stop-color:#ffffff;stop-opacity:0;"
         offset="1"
         id="stop3885" />
    </linearGradient>
    <linearGradient
       id="linearGradient3779">
      <stop
         style="stop-color:#ffffff;stop-opacity:1;"
         offset="0"
         id="stop3781" />
      <stop
         style="stop-color:#552200;stop-opacity:0;"
         offset="1"
         id="stop3783" />
    </linearGradient>
    <linearGradient
       inkscape:collect="always"
       xlink:href="#linearGradient3779"
       id="linearGradient3785"
       x1="6.5"
       y1="17.5"
       x2="29.75"
       y2="49"
       gradientUnits="userSpaceOnUse" />
    <linearGradient
       inkscape:collect="always"
       xlink:href="#linearGradient3881"
       id="linearGradient3887"
       x1="32.548046"
       y1="18.308853"
       x2="33.045803"
       y2="54.433853"
       gradientUnits="userSpaceOnUse" />
    <linearGradient
       inkscape:collect="always"
       xlink:href="#linearGradient3881-5"
       id="linearGradient3887-9"
       x1="32.548046"
       y1="18.308853"
       x2="33.045803"
       y2="54.433853"
       gradientUnits="userSpaceOnUse" />
    <linearGradient
       inkscape:collect="always"
       id="linearGradient3881-5"
       osb:paint="gradient">
      <stop
         style="stop-color:#ffffff;stop-opacity:1;"
         offset="0"
         id="stop3883-2" />
      <stop
         style="stop-color:#ffffff;stop-opacity:0;"
         offset="1"
         id="stop3885-1" />
    </linearGradient>
    <linearGradient
       inkscape:collect="always"
       xlink:href="#linearGradient3994"
       id="linearGradient4000"
       x1="63.908382"
       y1="8.430687"
       x2="63.967106"
       y2="5.9495206"
       gradientUnits="userSpaceOnUse"
       gradientTransform="matrix(0.87093663,0,0,0.66619159,-22.275027,46.028725)" />
    <linearGradient
       inkscape:collect="always"
       xlink:href="#linearGradient3881"
       id="linearGradient4026"
       x1="35.831985"
       y1="42.604668"
       x2="35.935844"
       y2="46.759102"
       gradientUnits="userSpaceOnUse"
       gradientTransform="matrix(0.95966594,0,0,0.87580264,-2.6940991,8.7644655)" />
  </defs>
  <sodipodi:namedview
     id="base"
     pagecolor="#ffffff"
     bordercolor="#666666"
     borderopacity="1.0"
     inkscape:pageopacity="0.0"
     inkscape:pageshadow="2"
     inkscape:zoom="2.06"
     inkscape:cx="32"
     inkscape:cy="32"
     inkscape:current-layer="layer3"
     showgrid="true"
     inkscape:document-units="px"
     inkscape:grid-bbox="true"
     inkscape:snap-global="true"
     inkscape:window-width="1363"
     inkscape:window-height="743"
     inkscape:window-x="1"
     inkscape:window-y="900"
     inkscape:window-maximized="1" />
  <metadata
     id="metadata2990">
    <rdf:RDF>
      <cc:Work
         rdf:about="">
        <dc:format>image/svg+xml</dc:format>
        <dc:type
           rdf:resource="http://purl.org/dc/dcmitype/StillImage" />
        <dc:title></dc:title>
      </cc:Work>
    </rdf:RDF>
  </metadata>
  <g
     id="layer1"
     inkscape:label="Layer 1"
     inkscape:groupmode="layer" />
  <g
     inkscape:groupmode="layer"
     id="layer2"
     inkscape:label="box"
     style="display:inline">
    <path
       style="fill:#552200;stroke:#2b1100;stroke-width:1px;stroke-linecap:butt;stroke-linejoin:miter;stroke-opacity:1"
       d="M 15.875,26.125 7.125,19.625 17.875,16.75 24.25,22 z"
       id="path3826"
       inkscape:connector-curvature="0" />
    <path
       style="fill:#552200;fill-opacity:1;stroke:#231200;stroke-width:1px;stroke-linecap:butt;stroke-linejoin:miter;stroke-opacity:1"
       d="m 16.25,26 8,-4.375 0.125,18.625 -7.125,0.625 z"
       id="path3791"
       inkscape:connector-curvature="0" />
    <path
       style="fill:#552200;stroke:#2b1100;stroke-width:1px;stroke-linecap:butt;stroke-linejoin:miter;stroke-opacity:1"
       d="m 49.3125,26.0625 8.75,-6.5 -10.75,-2.875 -6.375,5.25 z"
       id="path3826-6"
       inkscape:connector-curvature="0" />
    <rect
       style="fill:#552200;fill-opacity:1;stroke:#2b1100;stroke-width:0.96700001;stroke-linejoin:miter;stroke-miterlimit:4;stroke-opacity:1;stroke-dasharray:none"
       id="rect3846"
       width="17"
       height="9"
       x="24.125"
       y="21.25" />
    <rect
       style="fill:#000000;fill-opacity:0.45945949;stroke:none"
       id="rect3848"
       width="13.5"
       height="8.375"
       x="25.75"
       y="22.75" />
    <path
       style="fill:#552200;fill-opacity:1;stroke:#231200;stroke-width:1px;stroke-linecap:butt;stroke-linejoin:miter;stroke-opacity:1"
       d="m 49.3125,26 -8,-4.375 -0.125,18.625 7.125,0.625 z"
       id="path3791-6"
       inkscape:connector-curvature="0" />
    <rect
       style="fill:#552200;stroke:#231200;stroke-width:1;stroke-miterlimit:4;stroke-opacity:1;stroke-dasharray:none"
       id="rect3762"
       width="33.272728"
       height="29.454546"
       x="16.181818"
       y="26.181818" />
    <path
       style="fill:url(#linearGradient3785);fill-opacity:1;stroke:none"
       d="M 18,45.75 17.75,28 47,27.75 z"
       id="path3767"
       inkscape:connector-curvature="0" />
  </g>
  <g
     inkscape:groupmode="layer"
     id="layer3"
     inkscape:label="exixir">
    <path
       style="fill:url(#linearGradient3887);stroke:#000000;stroke-width:1px;stroke-linecap:butt;stroke-linejoin:miter;stroke-opacity:0.78325123;fill-opacity:1"
       d="m 35.125,36.625 c 3.978568,-2.618201 -7.834962,-2.303672 -3.595365,-0.01948 -0.124427,4.89468 0.204583,5.508076 0.150143,7.349728 -0.05444,1.841652 -4.778309,4.825665 -4.756658,6.478859 0.02165,1.653194 2.009458,1.95829 6.150696,1.853879 4.201741,-0.105936 6.656625,0.760244 6.721377,-1.885683 0.06475,-2.645927 -5.045614,-4.847903 -4.95459,-6.429229 C 34.931627,42.39175 35.042577,40.259073 35.125,36.625 z"
       id="path3851"
       inkscape:connector-curvature="0"
       sodipodi:nodetypes="cczzszzc" />
    <path
       style="fill:#048612;fill-opacity:1;stroke:none"
       d="m 29.96875,46.625 c -1.373912,1.422836 -3.04431,2.8778 -3.03125,3.875 0.02165,1.653194 2.015012,1.948161 6.15625,1.84375 4.20174,-0.105936 6.653998,0.770927 6.71875,-1.875 0.0226,-0.923669 -0.640213,-1.785801 -1.4375,-2.59375 -0.04387,0.0093 -0.08773,0.01864 -0.125,0 -0.05271,-0.02635 -0.07229,-0.09865 -0.125,-0.125 -0.07454,-0.03727 -0.19107,0.05893 -0.25,0 -0.02946,-0.02946 0.02946,-0.09554 0,-0.125 -0.02946,-0.02946 -0.08773,0.01863 -0.125,0 -0.05271,-0.02635 -0.07229,-0.09865 -0.125,-0.125 -0.03727,-0.01863 -0.08773,0.01863 -0.125,0 -0.05271,-0.02635 -0.07229,-0.09865 -0.125,-0.125 -0.03727,-0.01863 -0.09554,0.02946 -0.125,0 -0.02946,-0.02946 0.02946,-0.09554 0,-0.125 -0.05893,-0.05893 -0.19107,0.05893 -0.25,0 -0.02946,-0.02946 0.02946,-0.09554 0,-0.125 -0.02946,-0.02946 -0.08773,0.01863 -0.125,0 C 36.82229,47.09865 36.80271,47.02635 36.75,47 c -0.03727,-0.01863 -0.08773,0.01863 -0.125,0 -0.05271,-0.02635 -0.07229,-0.09865 -0.125,-0.125 -0.03727,-0.01863 -0.08773,0.01863 -0.125,0 -0.05271,-0.02635 -0.07229,-0.09865 -0.125,-0.125 -0.03727,-0.01863 -0.09554,0.02946 -0.125,0 -0.02946,-0.02946 0.02946,-0.09554 0,-0.125 -0.05893,-0.05893 -0.17546,0.03727 -0.25,0 -0.05271,-0.02635 -0.07229,-0.09865 -0.125,-0.125 -0.0452,-0.0226 -0.53806,0 -0.625,0 -0.06536,0 -0.46713,-0.01643 -0.5,0 -0.05271,0.02635 -0.07229,0.09865 -0.125,0.125 -0.03727,0.01863 -0.08773,-0.01863 -0.125,0 -0.05271,0.02635 -0.07229,0.09865 -0.125,0.125 -0.07454,0.03727 -0.17546,-0.03727 -0.25,0 -0.05271,0.02635 -0.07229,0.09865 -0.125,0.125 -0.03727,0.01863 -0.08773,-0.01863 -0.125,0 -0.05271,0.02635 -0.07229,0.09865 -0.125,0.125 -0.03727,0.01863 -0.08773,-0.01863 -0.125,0 -0.05271,0.02635 -0.07229,0.09865 -0.125,0.125 -0.03727,0.01863 -0.08773,-0.01863 -0.125,0 -0.105409,0.05271 -0.144591,0.19729 -0.25,0.25 -0.03727,0.01863 -0.09554,-0.02946 -0.125,0 -0.02946,0.02946 0.02946,0.09554 0,0.125 -0.02946,0.02946 -0.08773,-0.01863 -0.125,0 -0.0527,0.02635 -0.0723,0.09865 -0.125,0.125 -0.03727,0.01863 -0.08773,-0.01863 -0.125,0 -0.0527,0.02635 -0.0723,0.09865 -0.125,0.125 -0.03287,0.01643 -0.43464,0 -0.5,0 -0.03032,0 -0.371,0.004 -0.375,0 -0.02946,-0.02946 0.02946,-0.09554 0,-0.125 -0.05893,-0.05893 -0.19107,0.05893 -0.25,0 -0.02946,-0.02946 0.01863,-0.08773 0,-0.125 -0.130055,-0.26011 -0.127342,-0.222356 -0.125,-0.15625 0.0023,0.06611 0.0043,0.160564 -0.125,0.03125 -0.05893,-0.05893 0.05893,-0.19107 0,-0.25 -0.02946,-0.02946 -0.09554,0.02946 -0.125,0 -0.02946,-0.02946 0.02946,-0.09554 0,-0.125 -0.02946,-0.02946 -0.09554,0.02946 -0.125,0 -0.02946,-0.02946 0.02946,-0.09554 0,-0.125 -0.02946,-0.02946 -0.08773,0.01863 -0.125,0 -0.0527,-0.02635 -0.0723,-0.09865 -0.125,-0.125 -0.07454,-0.03727 -0.17546,0.03727 -0.25,0 -0.0527,-0.02635 -0.0723,-0.09865 -0.125,-0.125 -0.0033,-0.0017 -0.09007,6.21e-4 -0.15625,0 z"
       id="path3968"
       inkscape:connector-curvature="0" />
    <path
       sodipodi:type="arc"
       style="fill:#048612;fill-opacity:1;stroke:#000000;stroke-width:0.96700001;stroke-linejoin:miter;stroke-miterlimit:4;stroke-opacity:0.78325124;stroke-dasharray:none"
       id="path3970"
       sodipodi:cx="35.5625"
       sodipodi:cy="31.625"
       sodipodi:rx="0.5625"
       sodipodi:ry="0.875"
       d="m 36.125,31.625 a 0.5625,0.875 0 1 1 -1.125,0 0.5625,0.875 0 1 1 1.125,0 z"
       transform="translate(-2.25,2)" />
    <path
       sodipodi:type="arc"
       style="fill:#048612;fill-opacity:1;stroke:#000000;stroke-width:0.96700001;stroke-linejoin:miter;stroke-miterlimit:4;stroke-opacity:0.78325124;stroke-dasharray:none"
       id="path3972"
       sodipodi:cx="31.75"
       sodipodi:cy="31.75"
       sodipodi:rx="0.875"
       sodipodi:ry="0.75"
       d="m 32.625,31.75 a 0.875,0.75 0 1 1 -1.75,0 0.875,0.75 0 1 1 1.75,0 z"
       transform="translate(0.125,-0.875)" />
    <path
       sodipodi:type="arc"
       style="fill:#048612;fill-opacity:1;stroke:#000000;stroke-width:0.96700001;stroke-linejoin:miter;stroke-miterlimit:4;stroke-opacity:0.78325124;stroke-dasharray:none"
       id="path3974"
       sodipodi:cx="33.125"
       sodipodi:cy="29.3125"
       sodipodi:rx="0.625"
       sodipodi:ry="0.5625"
       d="m 33.75,29.3125 a 0.625,0.5625 0 1 1 -1.25,0 0.625,0.5625 0 1 1 1.25,0 z"
       transform="translate(2,-0.125)" />
    <path
       style="fill:url(#linearGradient4000);fill-opacity:1;stroke:none"
       d="m 30.498077,47.813601 c -1.196589,0.947882 -2.6514,1.917166 -2.640026,2.581493 0.01886,1.101343 1.754948,1.297848 5.361704,1.228291 3.659449,-0.07058 5.79521,0.513585 5.851605,-1.24911 0.01968,-0.61534 -0.557584,-1.189685 -1.251971,-1.727934 -0.0382,0.0062 -0.07641,0.01242 -0.108867,0 -0.0459,-0.01755 -0.06296,-0.06572 -0.108867,-0.08328 -0.06492,-0.02483 -0.16641,0.03926 -0.217735,0 -0.02566,-0.01962 0.02566,-0.06365 0,-0.08327 -0.02566,-0.01962 -0.07641,0.01241 -0.108867,0 -0.0459,-0.01755 -0.06296,-0.06572 -0.108866,-0.08327 -0.03246,-0.01241 -0.07641,0.01242 -0.108867,0 -0.0459,-0.01755 -0.06296,-0.06572 -0.108868,-0.08327 -0.03246,-0.01241 -0.0832,0.01962 -0.108867,0 -0.02566,-0.01962 0.02566,-0.06365 0,-0.08327 -0.05132,-0.03926 -0.16641,0.03926 -0.217734,0 -0.02566,-0.01962 0.02566,-0.06365 0,-0.08327 -0.02566,-0.01963 -0.07641,0.01242 -0.108867,0 -0.0459,-0.01755 -0.06296,-0.06572 -0.108867,-0.08327 -0.03246,-0.01241 -0.07641,0.01242 -0.108867,0 -0.0459,-0.01755 -0.06296,-0.06572 -0.108867,-0.08327 -0.03246,-0.01241 -0.07641,0.01241 -0.108868,0 -0.0459,-0.01755 -0.06296,-0.06572 -0.108867,-0.08327 -0.03245,-0.01241 -0.0832,0.01962 -0.108867,0 -0.02566,-0.01962 0.02566,-0.06365 0,-0.08327 -0.05132,-0.03926 -0.152814,0.02483 -0.217733,0 -0.0459,-0.01755 -0.06296,-0.06572 -0.108868,-0.08327 -0.03937,-0.01506 -0.468616,0 -0.544335,0 -0.05692,0 -0.406841,-0.01094 -0.435469,0 -0.0459,0.01755 -0.06296,0.06572 -0.108867,0.08327 -0.03246,0.01241 -0.07641,-0.01241 -0.108866,0 -0.0459,0.01755 -0.06296,0.06572 -0.108867,0.08327 -0.06492,0.02483 -0.152815,-0.02483 -0.217735,0 -0.0459,0.01755 -0.06296,0.06572 -0.108867,0.08327 -0.03245,0.01241 -0.07641,-0.01241 -0.108867,0 -0.0459,0.01755 -0.06296,0.06572 -0.108867,0.08327 -0.03246,0.01242 -0.07641,-0.01241 -0.108867,0 -0.0459,0.01755 -0.06296,0.06572 -0.108867,0.08327 -0.03246,0.01242 -0.07641,-0.01241 -0.108867,0 -0.09181,0.03512 -0.12593,0.131433 -0.217735,0.166548 -0.03245,0.01241 -0.0832,-0.01962 -0.108867,0 -0.02566,0.01962 0.02566,0.06365 0,0.08327 -0.02566,0.01962 -0.07641,-0.01241 -0.108866,0 -0.0459,0.01755 -0.06297,0.06572 -0.108867,0.08327 -0.03246,0.01241 -0.07641,-0.01241 -0.108868,0 -0.04589,0.01755 -0.06297,0.06572 -0.108867,0.08327 -0.02862,0.01094 -0.378544,0 -0.435468,0 -0.02641,0 -0.323118,0.0027 -0.326602,0 -0.02566,-0.01962 0.02566,-0.06365 0,-0.08327 -0.05132,-0.03926 -0.166409,0.03926 -0.217734,0 -0.02566,-0.01962 0.01623,-0.05845 0,-0.08327 -0.113269,-0.173283 -0.110906,-0.148132 -0.108866,-0.104092 0.002,0.04404 0.0038,0.106966 -0.108868,0.02082 -0.05132,-0.03926 0.05132,-0.127289 0,-0.166548 -0.02566,-0.01962 -0.08321,0.01962 -0.108867,0 -0.02566,-0.01962 0.02566,-0.06365 0,-0.08327 -0.02566,-0.01962 -0.0832,0.01962 -0.108867,0 -0.02566,-0.01962 0.02566,-0.06365 0,-0.08327 -0.02566,-0.01962 -0.07641,0.01241 -0.108867,0 -0.0459,-0.01755 -0.06297,-0.06572 -0.108867,-0.08327 -0.06492,-0.02483 -0.152814,0.02483 -0.217734,0 -0.04589,-0.01755 -0.06297,-0.06572 -0.108867,-0.08327 -0.0029,-0.0011 -0.07844,4.14e-4 -0.136085,0 z"
       id="path3968-9"
       inkscape:connector-curvature="0" />
    <path
       style="fill:url(#linearGradient4026);fill-opacity:1;stroke:none"
       d="m 30.018287,46.518076 c -1.318496,1.246123 -2.92152,2.520384 -2.908987,3.393735 0.02078,1.447871 1.933738,1.706204 5.907943,1.614761 4.032267,-0.09278 6.385616,0.67518 6.447756,-1.64213 0.02169,-0.808951 -0.614391,-1.564009 -1.37952,-2.271613 -0.0421,0.0082 -0.08419,0.01632 -0.119958,0 -0.05058,-0.02308 -0.06937,-0.0864 -0.119958,-0.109475 -0.07153,-0.03265 -0.183364,0.05161 -0.239917,0 -0.02827,-0.0258 0.02827,-0.08367 0,-0.109475 -0.02827,-0.0258 -0.08419,0.01631 -0.119958,0 -0.05058,-0.02308 -0.06937,-0.0864 -0.119958,-0.109477 -0.03577,-0.01631 -0.08419,0.01631 -0.119958,0 -0.05058,-0.02308 -0.06938,-0.0864 -0.119959,-0.109475 -0.03577,-0.01631 -0.09169,0.0258 -0.119958,0 -0.02827,-0.0258 0.02827,-0.08367 0,-0.109475 -0.05655,-0.05161 -0.183363,0.05161 -0.239916,0 -0.02827,-0.0258 0.02827,-0.08367 0,-0.109475 -0.02827,-0.0258 -0.08419,0.01631 -0.119959,0 -0.05058,-0.02308 -0.06937,-0.0864 -0.119958,-0.109475 -0.03577,-0.01631 -0.08419,0.01631 -0.119958,0 -0.05058,-0.02308 -0.06937,-0.0864 -0.119958,-0.109476 -0.03577,-0.01631 -0.08419,0.01631 -0.119959,0 -0.05058,-0.02308 -0.06937,-0.0864 -0.119958,-0.109475 -0.03577,-0.01631 -0.09169,0.0258 -0.119958,0 -0.02827,-0.0258 0.02827,-0.08367 0,-0.109475 -0.05655,-0.05161 -0.168383,0.03265 -0.239917,0 -0.05058,-0.02308 -0.06937,-0.0864 -0.119958,-0.109475 -0.04338,-0.01979 -0.516358,0 -0.599791,0 -0.06272,0 -0.448289,-0.01439 -0.479833,0 -0.05058,0.02308 -0.06937,0.0864 -0.119958,0.109475 -0.03577,0.01631 -0.08419,-0.01631 -0.119959,0 -0.05058,0.02308 -0.06937,0.0864 -0.119958,0.109475 -0.07153,0.03265 -0.168383,-0.03264 -0.239916,0 -0.05058,0.02308 -0.06937,0.0864 -0.119959,0.109475 -0.03577,0.01631 -0.08419,-0.01631 -0.119958,0 -0.05058,0.02308 -0.06937,0.0864 -0.119958,0.109476 -0.03577,0.01631 -0.08419,-0.01631 -0.119958,0 -0.05058,0.02308 -0.06937,0.0864 -0.119958,0.109475 -0.03577,0.01631 -0.08419,-0.01631 -0.119959,0 -0.101157,0.04616 -0.138759,0.172787 -0.239916,0.21895 -0.03577,0.01631 -0.09169,-0.0258 -0.119958,0 -0.02827,0.0258 0.02827,0.08367 0,0.109475 -0.02827,0.0258 -0.08419,-0.01631 -0.119959,0 -0.05057,0.02308 -0.06938,0.0864 -0.119958,0.109477 -0.03577,0.01631 -0.08419,-0.01631 -0.119958,0 -0.05058,0.02308 -0.06938,0.0864 -0.119958,0.109475 -0.03155,0.01439 -0.41711,0 -0.479833,0 -0.0291,0 -0.356036,0.0035 -0.359875,0 -0.02827,-0.0258 0.02827,-0.08367 0,-0.109475 -0.05655,-0.05161 -0.183363,0.05161 -0.239917,0 -0.02827,-0.0258 0.01788,-0.07684 0,-0.109477 -0.124809,-0.227805 -0.122205,-0.194739 -0.119958,-0.136844 0.0022,0.0579 0.0041,0.140623 -0.119958,0.02737 -0.05655,-0.05161 0.05655,-0.167339 0,-0.21895 -0.02827,-0.0258 -0.09169,0.0258 -0.119958,0 -0.02827,-0.0258 0.02827,-0.08367 0,-0.109476 -0.02827,-0.0258 -0.09169,0.0258 -0.119959,0 -0.02827,-0.0258 0.02827,-0.08367 0,-0.109475 -0.02827,-0.0258 -0.08419,0.01631 -0.119958,0 -0.05057,-0.02308 -0.06938,-0.0864 -0.119958,-0.109475 -0.07153,-0.03265 -0.168383,0.03265 -0.239917,0 -0.05057,-0.02308 -0.06938,-0.0864 -0.119958,-0.109475 -0.0032,-0.0015 -0.08644,5.44e-4 -0.149948,0 z"
       id="path3968-1"
       inkscape:connector-curvature="0" />
  </g>
</svg>
